<?xml version="1.0" encoding="UTF-8"?>
<svg width="1559px" height="983px" viewBox="0 0 1559 983" version="1.1" xmlns="http://www.w3.org/2000/svg" xmlns:xlink="http://www.w3.org/1999/xlink">
    <!-- Generator: Sketch 48.2 (47327) - http://www.bohemiancoding.com/sketch -->
    <title>chevy</title>
    <desc>Created with Sketch.</desc>
    <defs></defs>
    <g id="Page-1" stroke="none" stroke-width="1" fill="none" fill-rule="evenodd">
        <g id="chevy" fill="#63CCFF" fill-rule="nonzero">
            <g id="g3003" transform="translate(779.338983, 491.559300) scale(-1, 1) rotate(-180.000000) translate(-779.338983, -491.559300) translate(0.338983, 0.559300)">
                <path d="M1558,779 C1558,743.666667 1545.66667,713.666667 1521,689 L870,38 C844.666667,12.6666667 814.333333,0 779,0 C743,0 713,12.6666667 689,38 L38,689 C12.6666667,713 0,743 0,779 C0,814.333333 12.6666667,844.666667 38,870 L112,945 C138,969.666667 168.333333,982 203,982 C238.333333,982 268.333333,969.666667 293,945 L779,459 L1265,945 C1289.66667,969.666667 1319.66667,982 1355,982 C1389.66667,982 1420,969.666667 1446,945 L1521,870 C1545.66667,844 1558,813.666667 1558,779 Z" id="path3005"></path>
            </g>
        </g>
    </g>
</svg>