<?xml version="1.0" encoding="UTF-8"?>
<svg width="127px" height="48px" viewBox="0 0 127 48" version="1.1" xmlns="http://www.w3.org/2000/svg" xmlns:xlink="http://www.w3.org/1999/xlink">
    <!-- Generator: Sketch 41.2 (35397) - http://www.bohemiancoding.com/sketch -->
    <title>Logo</title>
    <desc>Created with Sketch.</desc>
    <defs></defs>
    <g id="Welcome" stroke="none" stroke-width="1" fill="none" fill-rule="evenodd">
        <g id="Desktop-HD" transform="translate(-32.000000, -32.000000)" fill="#FFFFFF">
            <g id="Nav-Items" transform="translate(32.000000, 27.000000)">
                <g id="Logo" transform="translate(0.000000, 5.000000)">
                    <path d="M76.6350904,30.1907308 L78.0833075,30.1907308 L78.0833075,18.8403286 L82.3374455,18.8403286 L82.3374455,17.5188304 L72.3809524,17.5188304 L72.3809524,18.8403286 L76.6350904,18.8403286 L76.6350904,30.1907308 Z M87.1613737,30.1907308 L88.6276936,30.1907308 L90.1302189,26.8417285 L97.0273533,26.8417285 L98.5117759,30.1907308 L100.050507,30.1907308 L94.2757406,17.4283169 L92.9361397,17.4283169 L87.1613737,30.1907308 Z M90.6914031,25.5564358 L93.5878375,19.0937666 L96.4661691,25.5564358 L90.6914031,25.5564358 Z M105.882667,30.1907308 L107.530014,30.1907308 L111.585022,24.7418136 L115.64003,30.1907308 L117.341685,30.1907308 L112.472055,23.7099589 L117.160658,17.5188304 L115.495209,17.5188304 L111.63933,22.6962069 L107.747247,17.5188304 L106.063694,17.5188304 L110.752297,23.7280616 L105.882667,30.1907308 Z M125.429622,30.1907308 L126.859737,30.1907308 L126.859737,17.5188304 L125.429622,17.5188304 L125.429622,30.1907308 Z" id="TAXI-Copy-44"></path>
                    <g id="Group">
                        <path d="M20.1575716,39.0650737 C20.1439666,39.0570068 20.1371428,39.0531894 20.1385689,39.0548941 L7.89293149,39.0548941 L7.89293149,8.30888225 L20.3516419,8.30888225 C20.2570613,8.41884302 20.1634713,8.52965776 20.0708964,8.64129929 C20.1964852,8.50536572 20.3041347,8.39033304 20.378114,8.30888225 C20.9700839,8.30888225 23.2541874,8.33852735 23.2662094,8.326828 C25.3414225,8.32799447 27.4078279,8.71646612 29.304302,9.51699014 C29.7636706,9.71089397 31.8228647,10.6798568 32.7556657,11.557063 C32.754939,11.5574783 32.7542124,11.5578934 32.7534858,11.5583084 C33.2531429,11.9475068 33.7304997,12.3686894 34.1837613,12.8212517 C35.5973262,14.2326433 36.70728,15.8765093 37.4828026,17.7071982 C38.2860436,19.6033138 38.6933028,21.6168598 38.6933028,23.6919385 C38.6933028,25.7670172 38.2860436,27.7805812 37.4828026,29.6766788 C36.70728,31.5073857 35.5973262,33.1512517 34.1837613,34.5626253 C33.655176,35.0903988 33.0939956,35.5757508 32.5026943,36.0171202 C32.4993236,36.0154815 32.4959536,36.0138413 32.4925844,36.0121999 C32.4930831,36.0159194 32.4935182,36.0196366 32.4938903,36.0233515 C32.496675,36.0212754 32.499459,36.0191983 32.5022424,36.0171202 C32.7193895,36.1227169 32.9396753,36.2229628 33.1632075,36.3173731 C34.8389903,37.0251454 36.6197506,37.3840053 38.4560577,37.3840053 C38.7818052,37.3840053 39.1061538,37.3724419 39.4287805,37.3497281 C39.3983005,37.3855777 39.3677028,37.4213275 39.3369882,37.4569763 C39.4160989,37.3894 39.457696,37.3505818 39.4476811,37.3512866 C39.9518864,36.7585087 40.423773,36.1383777 40.8584087,35.4960986 C41.6222764,34.3673133 42.2783191,33.1607044 42.8083149,31.9097811 C43.9108662,29.3074242 44.4699167,26.54242 44.4699167,23.691605 C44.4699167,20.8407901 43.9108662,18.0758038 42.8083149,15.4734469 C42.2783191,14.2225236 41.6222764,13.0159147 40.8584087,11.8871294 C40.4890383,11.3413222 40.0927296,10.8115249 39.6726392,10.3008605 C39.6749787,10.3010639 39.6773181,10.3012678 39.6796574,10.3014724 C39.6736313,10.295996 39.668031,10.290475 39.6628694,10.2849087 C38.5505788,8.98997948 37.940613,8.36434112 37.5997498,8.13100113 C37.6047293,8.12797632 37.6098605,8.12498325 37.6151403,8.122022 C37.6060333,8.12249984 37.5969276,8.12298512 37.5878231,8.12347785 C36.8163186,7.41855235 35.9918909,6.76902808 35.1274792,6.18646267 C33.9958855,5.42380288 32.7862619,4.76878694 31.5321677,4.23963069 C31.1557029,4.0807828 30.7758139,3.93332396 30.3927857,3.79713214 C30.3778122,3.79407312 30.3632617,3.79055155 30.3491524,3.78655195 C28.8603938,3.21228817 27.1032024,2.87269016 27.0604487,2.8959765 C25.8314156,2.6767872 24.5787059,2.56624142 23.3089383,2.56624142 L2.15242216,2.56624142 L2.15242216,44.7925928 L23.3089383,44.7925928 C24.4597308,44.7925928 25.5965505,44.7018591 26.714393,44.5217198 C27.3921935,44.905546 28.0884872,45.2564948 28.7986291,45.5714536 C28.6555613,45.5075374 28.507466,45.4388311 28.3581982,45.366372 C27.5183388,44.958679 26.7920764,44.5047222 26.7044767,44.5188412 C26.1654665,44.2135536 25.6380409,43.8877017 25.1251051,43.5418239 C23.8626085,42.6905248 22.6754662,41.7129331 21.5965849,40.6361271 C21.0943732,40.1348574 20.6139927,39.6098929 20.1575716,39.0650737 Z M23.0489428,39.049952 C22.9891908,38.9401025 21.6241382,37.545426 21.2212089,36.9502891 C21.2160439,36.9426607 21.1868241,36.9268555 21.1382747,36.9054349 L21.1853456,36.9054349 C20.9386719,36.5816502 20.7009974,36.251458 20.4735054,35.9151813 C19.6904058,34.7576331 19.0178434,33.5202514 18.4745157,32.237425 C17.3442085,29.5687139 16.7710864,26.7332464 16.7710864,23.8097613 C16.7710864,20.886312 17.3442085,18.0508446 18.4745157,15.3821155 C18.883072,14.4175052 19.3647018,13.4785807 19.9114551,12.5799707 C19.3346291,12.5799707 17.7749912,12.5961469 17.4232695,12.5961469 C17.0840455,13.2309807 16.7737947,13.8806869 16.4939907,14.5412983 C15.2504036,17.477437 14.6198617,20.5958032 14.6198617,23.8097613 C14.6198617,27.0237373 15.2504036,30.1421036 16.4939907,33.0782601 C17.0552453,34.4033406 17.7418229,35.6841065 18.5365285,36.8893863 C18.5352902,36.8993258 18.5346483,36.9038917 18.5330048,36.9014049 L10.045547,36.9014049 L10.045547,10.4623715 L18.7014828,10.4623715 C18.7054207,10.4565767 18.7093613,10.4507835 18.7133046,10.4449919 C18.7120069,10.4508607 18.7108496,10.456637 18.7098353,10.4623184 C19.5350054,10.4623184 21.1494687,10.4623184 21.3826689,10.4623184 L23.3098896,10.4623184 C25.0134868,10.4623184 26.5636472,10.7883016 28.1275377,11.413497 C28.2062856,11.444978 29.7419467,12.0595223 30.6747525,12.7593912 C31.3904994,13.2380727 32.046435,13.7288799 32.6642713,14.3457671 C33.8805266,15.5601252 34.8352684,16.9739034 35.5019973,18.5477848 C36.1919802,20.1765234 36.5418125,21.90726 36.5418125,23.6919385 C36.5418125,25.4766171 36.1919802,27.2073537 35.5019973,28.8361102 C34.8352684,30.4099916 33.8805266,31.8237519 32.6642713,33.0381279 C31.9973277,33.7040301 31.2701918,34.2912869 30.4895721,34.795852 C30.4852682,34.7951109 30.4809729,34.7943781 30.4766866,34.7936536 C29.8992301,34.3748909 29.3533495,33.9093796 28.8419495,33.3988426 C27.5935282,32.1525501 26.6134928,30.7016229 25.9291338,29.0863669 C25.2208912,27.4147974 24.8617941,25.6385507 24.8617941,23.8069774 C24.8617941,21.9753861 25.2208912,20.1991394 25.9291338,18.5275699 C26.6134928,16.912314 27.8987975,15.2439747 29.1472187,13.9976822 C28.878259,13.836171 27.658975,13.2978002 26.8879572,13.1183432 C25.4421733,14.5616615 24.7413898,15.8147554 23.9481918,17.686868 C23.1266813,19.6258463 22.7101165,21.6849351 22.7101165,23.8069774 C22.7101165,25.9290017 23.1266813,27.9881085 23.9481918,29.9270868 C24.7413898,31.7991814 25.8766508,33.4802442 27.3224347,34.9235266 C27.6630094,35.2635436 28.0994414,35.6580258 28.4658542,35.9632103 C28.9087737,36.3748379 30.1169716,37.1573023 30.4115496,37.3291381 C30.4096082,37.3301483 30.4076666,37.3311582 30.4057247,37.3321676 C31.0206131,37.6975991 31.6615081,38.021697 32.3265984,38.3025938 C33.7909216,38.9210541 35.3236291,39.3094265 36.9001425,39.4631234 C36.899024,39.4654019 36.8992609,39.4666486 36.9009175,39.4668143 C37.9770148,39.574504 39.6726392,39.5206592 40.5596482,39.4129695 C40.6067271,39.4072538 40.654103,39.3947872 40.7016373,39.3762944 C41.7551337,39.2273623 42.7890129,38.9722742 43.7930768,38.6127132 C45.4399868,38.0229263 46.9692143,37.1665785 48.3382966,36.0674522 C49.6948213,34.9784133 50.8546224,33.6831042 51.7854986,32.2174768 C52.5793536,30.9675787 53.1875356,29.6233586 53.5989761,28.2111116 L59.726829,28.2111116 C59.2883538,30.3341398 58.5337861,32.369164 57.4767061,34.2760142 C56.2456676,36.4966671 54.6465482,38.4703954 52.7237838,40.1423647 C50.7895382,41.8243316 48.5994047,43.1380923 46.2142519,44.0471205 C43.7453938,44.9880621 41.1408061,45.465165 38.4729102,45.465165 C36.751989,45.465165 35.0615337,45.2676602 33.4174799,44.8759985 C33.416888,44.8719799 33.4161573,44.8679568 33.415286,44.8639295 C32.7517674,44.7024301 31.1557361,44.3076539 29.9501407,43.7255743 C28.6871241,43.1876737 27.468617,42.5254365 26.3276699,41.7560894 C25.1786887,40.9813589 24.0982473,40.091605 23.1163115,39.111555 C23.095868,39.0911523 23.0756934,39.0704445 23.0553395,39.049952 L23.0489428,39.049952 Z M29.9098091,46.0097045 C29.895733,46.0138516 29.8816534,46.0179851 29.8675703,46.0221052 C32.6089102,47.0818514 35.5000442,47.6190476 38.4729102,47.6190476 C41.4036723,47.6190476 44.2660494,47.0944695 46.9805699,46.0599238 C49.6027741,45.0605223 52.0102077,43.6165414 54.1359386,41.7680794 C56.2487173,39.9308535 58.0060983,37.7616783 59.3592504,35.320737 C60.7457339,32.8196665 61.6592448,30.1179797 62.0743808,27.2907037 L62.2554971,26.057229 L51.9139269,26.057229 L51.720235,26.8900995 C51.3758879,28.3706963 50.7865602,29.7743996 49.9685947,31.0622598 C49.1647116,32.327953 48.1629208,33.4467155 46.9910645,34.3874956 C45.8089109,35.3365501 44.4888749,36.0758344 43.0676248,36.5847968 C42.9184244,36.6382411 42.7683909,36.6888545 42.6176779,36.7369274 C42.62526,36.7258933 42.63291,36.7148968 42.6404078,36.7038024 C43.4823105,35.4597354 44.2054478,34.1296422 44.7897507,32.7505144 C46.0056151,29.8807461 46.6221112,26.832877 46.6221112,23.691605 C46.6221112,20.5503331 46.0056151,17.5024819 44.7897507,14.6327136 C44.2489042,13.3561602 43.5888979,12.1217673 42.8260526,10.9585752 C42.7816466,10.9436129 42.7371749,10.928885 42.6926384,10.9143917 C42.7639614,10.9275155 42.8071473,10.9393916 42.8142935,10.9502867 C42.8819997,10.9731001 42.9496162,10.9962726 43.0169994,11.020163 C44.4268815,11.5200491 45.7385412,12.2467057 46.9155599,13.1799041 C48.0818683,14.1046125 49.082858,15.2054747 49.8907218,16.451941 C50.7120407,17.7191207 51.3106863,19.1022166 51.6700279,20.5628172 L51.8716574,21.3823611 L62.2285894,21.3823611 L62.0360196,20.1403283 C61.6010422,17.3348098 60.6745221,14.6560488 59.2822035,12.1784627 C57.9225718,9.75905013 56.1645248,7.61015038 54.0568598,5.79146261 C51.9356321,3.961054 49.5366725,2.53155938 46.9266289,1.54266451 C44.2248393,0.519019931 41.3768912,0 38.4619544,0 C35.6241362,0 32.8607524,0.489374276 30.2310605,1.45552714 C28.0011127,0.762934532 25.681651,0.41275225 23.3089383,0.41275225 L-5.32907052e-14,0.41275225 L-5.32907052e-14,46.946082 L23.3089383,46.946082 C25.552372,46.946082 27.7482014,46.6329467 29.8657902,46.0134238 C29.638333,45.9254896 29.4117905,45.834415 29.1864319,45.7392846 C29.1375269,45.7186423 29.0886827,45.6978291 29.0399009,45.6768458 C29.4088442,45.8343449 29.7244653,45.9522008 29.9098091,46.0097045 Z M40.7201158,8.23352013 C40.4168995,7.8934218 40.1039065,7.56221939 39.7818104,7.2408987 C38.726721,6.18834707 37.5657135,5.23270721 36.331037,4.40057603 C35.4152325,3.78336212 34.4528012,3.23035546 33.4586797,2.74898889 C33.4657294,2.74269206 33.4701611,2.73563128 33.4720875,2.72785489 C35.0955413,2.34651948 36.7638938,2.15390758 38.4619544,2.15390758 C41.1154849,2.15390758 43.7069066,2.62597233 46.1642255,3.55698093 C48.5382841,4.45645274 50.7206879,5.75701804 52.6508349,7.42254503 C54.568962,9.07767941 56.1687049,11.0329608 57.4056617,13.2340749 C58.4641138,15.1175594 59.2263916,17.1289501 59.6788068,19.2284535 L53.53507,19.2284535 C53.1108747,17.8351805 52.4944146,16.5103299 51.6970099,15.2800358 C50.7615556,13.8367382 49.6027103,12.5621814 48.2526228,11.491779 C46.8894569,10.4109841 45.3698886,9.56925497 43.7361312,8.98997948 C42.7645812,8.64547991 41.7651703,8.39880364 40.7473526,8.25113533 C40.7385794,8.24518044 40.7294974,8.23930878 40.7201158,8.23352013 Z M42.4597137,36.9578377 C42.5236259,36.8455503 42.5722351,36.7709219 42.60231,36.7508692 C42.5551675,36.8200958 42.5076338,36.8890872 42.4597137,36.9578377 Z M31.2804907,12.3438113 C31.0762472,12.4797718 30.8750304,12.6191247 30.6761448,12.7583478 C30.8717169,12.60106 31.0738133,12.4664532 31.2804907,12.3438113 Z" id="Combined-Shape-Copy-12"></path>
                    </g>
                </g>
            </g>
        </g>
    </g>
</svg>